<svg xmlns="http://www.w3.org/2000/svg" width="61" height="55" viewBox="0 0 61 55">
  <g id="Group_1519" data-name="Group 1519" transform="translate(4654 7923)">
    <rect id="Rectangle_1889" data-name="Rectangle 1889" width="61" height="55" transform="translate(-4654 -7923)" fill="none"/>
    <path id="Path_462" data-name="Path 462" d="M41.213,36.994,34.877,26.134a.682.682,0,0,0-.588-.338H7.542a.681.681,0,0,0-.576.317L.105,36.973A.684.684,0,0,0,0,37.337c0,2.716,2.545,4.926,5.674,4.926a6.5,6.5,0,0,0,.9-.068V57.224a1.452,1.452,0,0,0,1.451,1.451H33.278a1.452,1.452,0,0,0,1.45-1.451V42.195a6.5,6.5,0,0,0,.9.068c3.128,0,5.674-2.21,5.674-4.926A.683.683,0,0,0,41.213,36.994ZM23.991,57.313H17.315V49.646a3.338,3.338,0,0,1,6.676,0Zm9.375-.089a.091.091,0,0,1-.089.089H25.352V49.646a4.7,4.7,0,0,0-9.4,0v7.667H8.028a.092.092,0,0,1-.089-.089V41.853a5.489,5.489,0,0,0,2.728-2.177,5.85,5.85,0,0,0,4.993,2.588,5.851,5.851,0,0,0,4.993-2.588,5.849,5.849,0,0,0,4.993,2.588,5.85,5.85,0,0,0,4.993-2.588,5.484,5.484,0,0,0,2.728,2.177V57.224ZM35.631,40.9c-2.378,0-4.312-1.6-4.312-3.564a.681.681,0,0,0-1.362,0c0,1.965-1.934,3.564-4.312,3.564s-4.312-1.6-4.312-3.564a.681.681,0,0,0-1.362,0c0,1.965-1.934,3.564-4.312,3.564s-4.312-1.6-4.312-3.564a.681.681,0,0,0-1.362,0c0,1.965-1.934,3.564-4.312,3.564-2.3,0-4.188-1.5-4.306-3.376L7.914,27.158H33.895l6.041,10.355C39.827,39.4,37.938,40.9,35.631,40.9Z" transform="translate(-4644.152 -7937.735)" fill="#fff"/>
  </g>
</svg>
